<?xml version="1.0" encoding="UTF-8" standalone="no"?>
<!DOCTYPE svg PUBLIC "-//W3C//DTD SVG 1.1//EN" "http://www.w3.org/Graphics/SVG/1.1/DTD/svg11.dtd">
<svg width="100%" height="100%" viewBox="150 75 300 250" version="1.1" xmlns="http://www.w3.org/2000/svg" xmlns:xlink="http://www.w3.org/1999/xlink" xml:space="preserve" xmlns:serif="http://www.serif.com/" style="fill-rule:evenodd;clip-rule:evenodd;stroke-linejoin:round;stroke-miterlimit:2;">
    <g id="Layer1">
        <rect x="-1028.23" y="-248.288" width="1712.17" height="4055.19" style="fill:#3d4345;"/>
        <rect x="-13.101" y="-13.059" width="626.202" height="426.201" style="fill:url(#_Radial1);"/>
        <g id="CorelEMF" serif:id="CorelEMF">
        </g>
        <g id="CorelEMF1" serif:id="CorelEMF">
        </g>
        <g id="CorelEMF2" serif:id="CorelEMF">
        </g>
        <g id="CorelEMF3" serif:id="CorelEMF">
        </g>
        <g>
            <path d="M308.057,245.486L314.692,245.486C320.484,245.486 325.54,247.276 329.963,250.962C336.598,256.544 341.337,264.338 342.917,273.184C345.655,257.808 357.767,245.696 373.143,242.958C364.507,241.378 356.819,236.85 351.237,230.425C347.446,225.897 345.55,220.842 345.55,214.944L345.55,185.244C345.55,179.346 347.446,174.291 351.237,169.762C356.819,163.338 364.507,158.704 373.143,157.23C357.767,154.491 345.655,142.275 342.917,126.898C341.442,135.429 337.019,143.012 330.7,148.488C326.171,152.49 321.011,154.386 315.008,154.386L308.057,154.386L308.057,159.757L314.692,159.757C328.172,159.757 340.284,171.764 340.284,185.244L340.284,214.944C340.284,228.319 328.383,240.22 315.008,240.22L308.057,240.22L308.057,245.486Z" style="fill:#f8a400;"/>
            <rect x="212.955" y="197.356" width="36.124" height="5.371" style="fill:#006ec9;"/>
            <rect x="350.921" y="197.356" width="36.124" height="5.371" style="fill:#93b635;"/>
            <path d="M287.415,208.414C288.994,209.678 290.363,211.152 291.627,212.627C295.524,217.155 297.314,222.211 297.314,228.108L297.314,287.086L302.686,287.086L302.686,228.108C302.686,222.211 304.581,217.155 308.373,212.627C309.637,211.152 311.111,209.678 312.585,208.414C317.114,204.623 322.169,202.727 328.067,202.727L334.913,202.727L334.913,197.356L328.067,197.356C322.169,197.356 317.114,195.565 312.585,191.669C311.111,190.405 309.637,189.036 308.373,187.456C304.581,183.032 302.686,177.872 302.686,171.974L302.686,112.996L297.314,112.996L297.314,171.974C297.314,177.872 295.524,183.032 291.627,187.456C290.363,189.036 288.994,190.405 287.415,191.669C282.991,195.565 277.831,197.356 271.933,197.356L265.193,197.356L265.193,202.727L271.933,202.727C277.831,202.727 282.991,204.623 287.415,208.414Z" style="fill:#e70b2f;"/>
            <path d="M226.857,242.958C242.233,245.696 254.45,257.808 257.188,273.184C258.663,264.338 263.402,256.544 270.037,250.962C274.566,247.276 279.516,245.486 285.308,245.486L292.049,245.486L292.049,240.22L285.098,240.22C271.722,240.22 259.821,228.319 259.821,214.944L259.821,185.244C259.821,171.764 271.933,159.757 285.308,159.757L292.049,159.757L292.049,154.386L285.098,154.386C278.989,154.386 273.829,152.49 269.3,148.488C263.086,143.012 258.663,135.429 257.188,126.898C254.45,142.275 242.233,154.491 226.857,157.23C235.598,158.704 243.286,163.338 248.763,169.762C252.554,174.291 254.45,179.346 254.45,185.244L254.45,214.944C254.45,220.842 252.554,225.897 248.763,230.425C243.286,236.85 235.598,241.378 226.857,242.958Z" style="fill:#704fc1;"/>
            <path d="M372.477,200.041C380.67,201.559 387.195,208.083 388.712,216.276C390.305,208.083 396.754,201.559 404.947,200.041C396.754,198.448 390.305,192 388.712,183.806C387.195,192 380.67,198.448 372.477,200.041Z" style="fill:#93b635;"/>
            <path d="M195.053,200.041C203.246,201.559 209.771,208.083 211.288,216.276C212.881,208.083 219.33,201.559 227.523,200.041C219.33,198.448 212.881,192 211.288,183.806C209.771,192 203.246,198.448 195.053,200.041Z" style="fill:#006ec9;"/>
            <path d="M300,272.518C298.483,280.712 291.958,287.236 283.765,288.753C291.958,290.346 298.483,296.795 300,304.988C301.593,296.795 308.042,290.346 316.235,288.753C308.042,287.236 301.593,280.712 300,272.518Z" style="fill:#e70b2f;"/>
            <path d="M300,95.094C298.483,103.288 291.958,109.812 283.765,111.329C291.958,112.922 298.483,119.371 300,127.564C301.593,119.371 308.042,112.922 316.235,111.329C308.042,109.812 301.593,103.288 300,95.094Z" style="fill:#e70b2f;"/>
        </g>
        <g id="CorelEMF4" serif:id="CorelEMF">
        </g>
    </g>
    <defs>
        <radialGradient id="_Radial1" cx="0" cy="0" r="1" gradientUnits="userSpaceOnUse" gradientTransform="matrix(2.19595e-14,-366.128,358.626,2.24189e-14,300,200.041)"><stop offset="0" style="stop-color:#fff;stop-opacity:1"/><stop offset="1" style="stop-color:#eee;stop-opacity:1"/></radialGradient>
    </defs>
</svg>
